<?xml version="1.0" encoding="iso-8859-1"?>
<!-- Uploaded to: SVG Repo, www.svgrepo.com, Generator: SVG Repo Mixer Tools -->
<svg version="1.1" id="Layer_1" xmlns="http://www.w3.org/2000/svg" xmlns:xlink="http://www.w3.org/1999/xlink" 
	 viewBox="0 0 511.98 511.98" xml:space="preserve">
<rect x="53.338" style="fill:#5D9CEC;" width="320" height="511.98"/>
<rect x="58.826" y="293.962" style="fill:#F5F7FA;" width="294.66" height="117.34"/>
<path style="fill:#E6E9ED;" d="M53.334,276.726v10.656v10.67v21.328v21.344v21.326v21.328v21.344v10.654v10.672h319.998v-10.672
	v-10.654v-21.344V362.05v-21.326V319.38v-21.328v-10.67v-10.656H53.334z M202.658,340.724h21.335v21.326h-21.335V340.724z
	 M181.33,362.051h-21.335v-21.326h21.335L181.33,362.051L181.33,362.051z M245.328,340.724h21.328v21.326h-21.328V340.724z
	 M245.328,319.381v-21.328h21.328v21.328H245.328z M223.993,319.381h-21.335v-21.328h21.335V319.381z M181.33,319.381h-21.335
	v-21.328h21.335L181.33,319.381L181.33,319.381z M138.66,319.381h-21.328v-21.328h21.328V319.381z M138.66,340.724v21.326h-21.328
	v-21.326H138.66z M138.66,383.379v21.344h-21.328v-21.344H138.66z M159.995,383.379h21.335v21.344h-21.335L159.995,383.379
	L159.995,383.379z M202.658,383.379h21.335v21.344h-21.335V383.379z M245.328,383.379h21.328v21.344h-21.328V383.379z
	 M287.99,383.379h21.344v21.344H287.99V383.379z M287.99,362.051v-21.326h21.344v21.326H287.99z M287.99,319.381v-21.328h21.344
	v21.328H287.99z M74.662,298.053h21.335v21.328H74.662V298.053z M74.662,340.724h21.335v21.326H74.662V340.724z M74.662,383.379
	h21.335v21.344H74.662V383.379z M351.988,404.722h-21.342v-21.344h21.342V404.722z M351.988,362.051h-21.342v-21.326h21.342V362.051
	z M351.988,319.381h-21.342v-21.328h21.342V319.381z"/>
<path style="fill:#4A89DC;" d="M319.209,479.984H106.661c-5.891,0-10.664-4.766-10.664-10.656c0-5.889,4.773-10.67,10.664-10.67
	h212.548c5.906,0,10.688,4.781,10.688,10.67C329.896,475.219,325.115,479.984,319.209,479.984z"/>
<g>
	<path style="fill:#434A54;" d="M319.209,53.342H106.661c-5.891,0-10.664-4.781-10.664-10.671c0-5.891,4.773-10.672,10.664-10.672
		h212.548c5.906,0,10.688,4.781,10.688,10.672C329.896,48.561,325.115,53.342,319.209,53.342z"/>
	<path style="fill:#434A54;" d="M277.336,85.341H148.558c-5.89,0-10.664-4.781-10.664-10.671c0-5.891,4.773-10.672,10.664-10.672
		h128.778c5.873,0,10.654,4.781,10.654,10.672C287.99,80.56,283.209,85.341,277.336,85.341z"/>
</g>
<path style="fill:#FFCE54;" d="M426.642,383.551c-2.656,0-5.312-0.984-7.375-2.969l-21.326-20.453c-2.109-2-3.297-4.781-3.297-7.688
	V117.778c0-5.89,4.781-10.671,10.686-10.671h42.656c5.891,0,10.656,4.781,10.656,10.671v234.664c0,2.906-1.188,5.688-3.281,7.688
	l-21.328,20.453C431.97,382.566,429.314,383.551,426.642,383.551z"/>
<rect x="394.648" y="139.102" style="fill:#CCD1D9;" width="63.998" height="21.343"/>
<rect x="58.826" y="123.922" style="fill:#F5F7FA;" width="294.66" height="117.32"/>
<path style="fill:#E6E9ED;" d="M53.334,106.669v10.671v10.656v21.343v21.328v21.328v21.343v21.327v10.672v10.655h319.998v-10.656
	v-10.672v-21.327v-21.343v-21.328v-21.328v-21.343v-10.656v-10.671H53.334V106.669z M202.658,170.667h21.335v21.328h-21.335V170.667
	z M181.33,191.994h-21.335v-21.328h21.335L181.33,191.994L181.33,191.994z M245.328,170.667h21.328v21.328h-21.328V170.667z
	 M245.328,149.339v-21.343h21.328v21.343H245.328z M223.993,149.339h-21.335v-21.343h21.335V149.339z M181.33,149.339h-21.335
	v-21.343h21.335L181.33,149.339L181.33,149.339z M138.66,149.339h-21.328v-21.343h21.328V149.339z M138.66,170.667v21.328h-21.328
	v-21.328H138.66z M138.66,213.337v21.327h-21.328v-21.327H138.66z M159.995,213.337h21.335v21.327h-21.335L159.995,213.337
	L159.995,213.337z M202.658,213.337h21.335v21.327h-21.335V213.337z M245.328,213.337h21.328v21.327h-21.328V213.337z
	 M287.99,213.337h21.344v21.327H287.99V213.337z M287.99,191.994v-21.328h21.344v21.328H287.99z M287.99,149.339v-21.343h21.344
	v21.343H287.99z M74.662,127.996h21.335v21.343H74.662V127.996z M74.662,170.667h21.335v21.328H74.662V170.667z M74.662,213.337
	h21.335v21.327H74.662V213.337z M351.988,234.664h-21.342v-21.327h21.342V234.664z M351.988,191.994h-21.342v-21.328h21.342V191.994
	z M351.988,149.339h-21.342v-21.343h21.342V149.339z"/>
<path style="fill:#EC87C0;" d="M447.986,107.106H405.33c-5.904,0-10.686,4.781-10.686,10.671v21.328h63.998v-21.328
	C458.642,111.888,453.877,107.106,447.986,107.106z"/>
<path style="fill:#434A54;" d="M442.064,372.879h-30.828l8.031,7.703c2.062,1.984,4.719,2.969,7.375,2.969
	c2.672,0,5.328-0.984,7.391-2.969L442.064,372.879z"/>
</svg>